<?xml version="1.0" encoding="UTF-8" standalone="no"?>
<!DOCTYPE svg PUBLIC "-//W3C//DTD SVG 1.1//EN"
 "http://www.w3.org/Graphics/SVG/1.1/DTD/svg11.dtd">
<!-- Generated by graphviz version 2.38.0 (20140413.2041)
 -->
<!-- Title: G Pages: 1 -->
<svg width="1222pt" height="700pt"
 viewBox="0.00 0.00 1222.00 700.00" xmlns="http://www.w3.org/2000/svg" xmlns:xlink="http://www.w3.org/1999/xlink">
<g id="graph0" class="graph" transform="scale(1 1) rotate(0) translate(4 696)">
<title>G</title>
<polygon fill="white" stroke="none" points="-4,4 -4,-696 1218,-696 1218,4 -4,4"/>
<!-- apparat/micropub -->
<g id="node1" class="node"><title>apparat/micropub</title>
<path fill="#eeeeee" stroke="black" stroke-width="2" d="M444,-692C444,-692 352,-692 352,-692 346,-692 340,-686 340,-680 340,-680 340,-668 340,-668 340,-662 346,-656 352,-656 352,-656 444,-656 444,-656 450,-656 456,-662 456,-668 456,-668 456,-680 456,-680 456,-686 450,-692 444,-692"/>
<text text-anchor="middle" x="398" y="-670.3" font-family="Times New Roman,serif" font-size="14.00" fill="#314b5f">apparat/micropub</text>
</g>
<!-- php -->
<g id="node2" class="node"><title>php</title>
<path fill="#eeeeee" stroke="black" d="M550,-36C550,-36 520,-36 520,-36 514,-36 508,-30 508,-24 508,-24 508,-12 508,-12 508,-6 514,-0 520,-0 520,-0 550,-0 550,-0 556,-0 562,-6 562,-12 562,-12 562,-24 562,-24 562,-30 556,-36 550,-36"/>
<text text-anchor="middle" x="535" y="-14.3" font-family="Times New Roman,serif" font-size="14.00" fill="#314b5f">php</text>
</g>
<!-- apparat/micropub&#45;&gt;php -->
<g id="edge1" class="edge"><title>apparat/micropub&#45;&gt;php</title>
<path fill="none" stroke="#1a2833" d="M339.701,-673.089C229.153,-671.676 0,-660.486 0,-592 0,-592 0,-592 0,-100 0,-49.6185 375.691,-26.795 497.423,-20.7221"/>
<polygon fill="#1a2833" stroke="#1a2833" points="497.917,-24.2022 507.734,-20.2177 497.575,-17.2106 497.917,-24.2022"/>
<text text-anchor="middle" x="14.5" y="-356" font-family="Times New Roman,serif" font-size="10.00" fill="#767676">&gt;=5.6.0</text>
</g>
<!-- apparat/server -->
<g id="node3" class="node"><title>apparat/server</title>
<path fill="#eeeeee" stroke="black" d="M896,-609C896,-609 756,-609 756,-609 750,-609 744,-603 744,-597 744,-597 744,-585 744,-585 744,-579 750,-573 756,-573 756,-573 896,-573 896,-573 902,-573 908,-579 908,-585 908,-585 908,-597 908,-597 908,-603 902,-609 896,-609"/>
<text text-anchor="middle" x="826" y="-587.3" font-family="Times New Roman,serif" font-size="14.00" fill="#314b5f">apparat/server: dev&#45;master</text>
</g>
<!-- apparat/micropub&#45;&gt;apparat/server -->
<g id="edge2" class="edge"><title>apparat/micropub&#45;&gt;apparat/server</title>
<path fill="none" stroke="#1a2833" d="M456.167,-661.992C527.548,-648.483 649.45,-625.413 733.682,-609.471"/>
<polygon fill="#1a2833" stroke="#1a2833" points="734.587,-612.862 743.761,-607.564 733.285,-605.985 734.587,-612.862"/>
<text text-anchor="middle" x="660.5" y="-630" font-family="Times New Roman,serif" font-size="10.00" fill="#767676">dev&#45;master</text>
</g>
<!-- dominicsayers/isemail -->
<g id="node4" class="node"><title>dominicsayers/isemail</title>
<path fill="#eeeeee" stroke="black" d="M1092,-418C1092,-418 910,-418 910,-418 904,-418 898,-412 898,-406 898,-406 898,-394 898,-394 898,-388 904,-382 910,-382 910,-382 1092,-382 1092,-382 1098,-382 1104,-388 1104,-394 1104,-394 1104,-406 1104,-406 1104,-412 1098,-418 1092,-418"/>
<text text-anchor="middle" x="1001" y="-396.3" font-family="Times New Roman,serif" font-size="14.00" fill="#314b5f">dominicsayers/isemail: dev&#45;master</text>
</g>
<!-- apparat/micropub&#45;&gt;dominicsayers/isemail -->
<g id="edge3" class="edge"><title>apparat/micropub&#45;&gt;dominicsayers/isemail</title>
<path fill="none" stroke="#1a2833" d="M456.084,-672.02C553.384,-669.022 754.625,-656.985 917,-609 969.996,-593.339 999.61,-601.798 1029,-555 1042.07,-534.192 1022.7,-465.934 1010.2,-427.648"/>
<polygon fill="#1a2833" stroke="#1a2833" points="1013.52,-426.541 1007.04,-418.157 1006.88,-428.751 1013.52,-426.541"/>
<text text-anchor="middle" x="1055.5" y="-547" font-family="Times New Roman,serif" font-size="10.00" fill="#767676">dev&#45;master</text>
</g>
<!-- apparat/object -->
<g id="node5" class="node"><title>apparat/object</title>
<path fill="#eeeeee" stroke="black" d="M734,-526C734,-526 594,-526 594,-526 588,-526 582,-520 582,-514 582,-514 582,-502 582,-502 582,-496 588,-490 594,-490 594,-490 734,-490 734,-490 740,-490 746,-496 746,-502 746,-502 746,-514 746,-514 746,-520 740,-526 734,-526"/>
<text text-anchor="middle" x="664" y="-504.3" font-family="Times New Roman,serif" font-size="14.00" fill="#314b5f">apparat/object: dev&#45;master</text>
</g>
<!-- apparat/micropub&#45;&gt;apparat/object -->
<g id="edge4" class="edge"><title>apparat/micropub&#45;&gt;apparat/object</title>
<path fill="none" stroke="#1a2833" stroke-dasharray="5,2" d="M425.964,-655.759C474.484,-625.845 574.208,-564.361 627.89,-531.263"/>
<polygon fill="#1a2833" stroke="#1a2833" points="629.735,-534.237 636.411,-526.01 626.062,-528.279 629.735,-534.237"/>
<text text-anchor="middle" x="570.5" y="-588.5" font-family="Times New Roman,serif" font-size="10.00" fill="#767676">@dev</text>
</g>
<!-- apparat/resource -->
<g id="node6" class="node"><title>apparat/resource</title>
<path fill="#eeeeee" stroke="black" d="M559,-418C559,-418 405,-418 405,-418 399,-418 393,-412 393,-406 393,-406 393,-394 393,-394 393,-388 399,-382 405,-382 405,-382 559,-382 559,-382 565,-382 571,-388 571,-394 571,-394 571,-406 571,-406 571,-412 565,-418 559,-418"/>
<text text-anchor="middle" x="482" y="-396.3" font-family="Times New Roman,serif" font-size="14.00" fill="#314b5f">apparat/resource: dev&#45;master</text>
</g>
<!-- apparat/micropub&#45;&gt;apparat/resource -->
<g id="edge5" class="edge"><title>apparat/micropub&#45;&gt;apparat/resource</title>
<path fill="none" stroke="#1a2833" stroke-dasharray="5,2" d="M403.255,-655.985C417.426,-610.095 456.522,-483.501 473.71,-427.845"/>
<polygon fill="#1a2833" stroke="#1a2833" points="477.141,-428.596 476.747,-418.008 470.452,-426.53 477.141,-428.596"/>
<text text-anchor="middle" x="450.5" y="-547" font-family="Times New Roman,serif" font-size="10.00" fill="#767676">@dev</text>
</g>
<!-- apparat/kernel -->
<g id="node7" class="node"><title>apparat/kernel</title>
<path fill="#eeeeee" stroke="black" d="M369.5,-335C369.5,-335 230.5,-335 230.5,-335 224.5,-335 218.5,-329 218.5,-323 218.5,-323 218.5,-311 218.5,-311 218.5,-305 224.5,-299 230.5,-299 230.5,-299 369.5,-299 369.5,-299 375.5,-299 381.5,-305 381.5,-311 381.5,-311 381.5,-323 381.5,-323 381.5,-329 375.5,-335 369.5,-335"/>
<text text-anchor="middle" x="300" y="-313.3" font-family="Times New Roman,serif" font-size="14.00" fill="#314b5f">apparat/kernel: dev&#45;master</text>
</g>
<!-- apparat/micropub&#45;&gt;apparat/kernel -->
<g id="edge6" class="edge"><title>apparat/micropub&#45;&gt;apparat/kernel</title>
<path fill="none" stroke="#1a2833" stroke-dasharray="5,2" d="M339.719,-660.886C304.358,-649.743 266,-629.104 266,-592 266,-592 266,-592 266,-399 266,-379.55 274.438,-359.377 282.907,-344.028"/>
<polygon fill="#1a2833" stroke="#1a2833" points="286.076,-345.542 288.108,-335.144 280.035,-342.005 286.076,-345.542"/>
<text text-anchor="middle" x="278.5" y="-505.5" font-family="Times New Roman,serif" font-size="10.00" fill="#767676">@dev</text>
</g>
<!-- apparat/server&#45;&gt;php -->
<g id="edge24" class="edge"><title>apparat/server&#45;&gt;php</title>
<path fill="none" stroke="#1a2833" d="M908.24,-582.606C945.865,-577.517 990.532,-569.035 1029,-555 1097.67,-529.945 1128.63,-531.569 1171,-472 1189.64,-445.791 1185,-433.163 1185,-401 1185,-401 1185,-401 1185,-100 1185,-37.7952 710.182,-22.752 572.187,-19.6935"/>
<polygon fill="#1a2833" stroke="#1a2833" points="572.175,-16.1926 562.102,-19.4783 572.025,-23.191 572.175,-16.1926"/>
<text text-anchor="middle" x="1199.5" y="-314.5" font-family="Times New Roman,serif" font-size="10.00" fill="#767676">&gt;=5.6.0</text>
</g>
<!-- apparat/server&#45;&gt;dominicsayers/isemail -->
<g id="edge23" class="edge"><title>apparat/server&#45;&gt;dominicsayers/isemail</title>
<path fill="none" stroke="#1a2833" d="M858.554,-572.847C867.207,-567.635 876.284,-561.539 884,-555 928.486,-517.297 966.46,-459.874 986.284,-426.839"/>
<polygon fill="#1a2833" stroke="#1a2833" points="989.312,-428.595 991.384,-418.205 983.285,-425.035 989.312,-428.595"/>
<text text-anchor="middle" x="966.5" y="-505.5" font-family="Times New Roman,serif" font-size="10.00" fill="#767676">dev&#45;master</text>
</g>
<!-- apparat/server&#45;&gt;apparat/object -->
<g id="edge21" class="edge"><title>apparat/server&#45;&gt;apparat/object</title>
<path fill="none" stroke="#1a2833" d="M791.644,-572.822C766.968,-560.484 733.532,-543.766 707.071,-530.536"/>
<polygon fill="#1a2833" stroke="#1a2833" points="708.538,-527.356 698.028,-526.014 705.407,-533.617 708.538,-527.356"/>
<text text-anchor="middle" x="777.5" y="-547" font-family="Times New Roman,serif" font-size="10.00" fill="#767676">dev&#45;master</text>
</g>
<!-- apparat/server&#45;&gt;apparat/resource -->
<g id="edge28" class="edge"><title>apparat/server&#45;&gt;apparat/resource</title>
<path fill="none" stroke="#1a2833" stroke-dasharray="5,2" d="M743.811,-586.51C684.956,-580.531 606.157,-565.102 548,-526 514.263,-503.317 496.552,-457.649 488.253,-428.24"/>
<polygon fill="#1a2833" stroke="#1a2833" points="491.543,-426.991 485.609,-418.214 484.775,-428.776 491.543,-426.991"/>
<text text-anchor="middle" x="560.5" y="-505.5" font-family="Times New Roman,serif" font-size="10.00" fill="#767676">@dev</text>
</g>
<!-- apparat/server&#45;&gt;apparat/kernel -->
<g id="edge27" class="edge"><title>apparat/server&#45;&gt;apparat/kernel</title>
<path fill="none" stroke="#1a2833" stroke-dasharray="5,2" d="M743.854,-584.092C694.988,-579.18 632.161,-570.404 578,-555 457.629,-520.764 409.717,-516.088 332,-418 315.344,-396.978 307.263,-367.085 303.402,-345.464"/>
<polygon fill="#1a2833" stroke="#1a2833" points="306.813,-344.623 301.786,-335.297 299.899,-345.722 306.813,-344.623"/>
<text text-anchor="middle" x="393.5" y="-451.5" font-family="Times New Roman,serif" font-size="10.00" fill="#767676">@dev</text>
</g>
<!-- aura/router -->
<g id="node14" class="node"><title>aura/router</title>
<path fill="#eeeeee" stroke="black" d="M953.5,-335C953.5,-335 866.5,-335 866.5,-335 860.5,-335 854.5,-329 854.5,-323 854.5,-323 854.5,-311 854.5,-311 854.5,-305 860.5,-299 866.5,-299 866.5,-299 953.5,-299 953.5,-299 959.5,-299 965.5,-305 965.5,-311 965.5,-311 965.5,-323 965.5,-323 965.5,-329 959.5,-335 953.5,-335"/>
<text text-anchor="middle" x="910" y="-313.3" font-family="Times New Roman,serif" font-size="14.00" fill="#314b5f">aura/router: 3.0.1</text>
</g>
<!-- apparat/server&#45;&gt;aura/router -->
<g id="edge22" class="edge"><title>apparat/server&#45;&gt;aura/router</title>
<path fill="none" stroke="#1a2833" d="M833.527,-572.748C835.798,-567.153 838.171,-560.874 840,-555 856.121,-503.218 851.685,-488.026 867,-436 876.374,-404.155 889.807,-368.451 899.156,-344.743"/>
<polygon fill="#1a2833" stroke="#1a2833" points="902.443,-345.948 902.889,-335.362 895.939,-343.36 902.443,-345.948"/>
<text text-anchor="middle" x="875" y="-451.5" font-family="Times New Roman,serif" font-size="10.00" fill="#767676">^3.0</text>
</g>
<!-- typo3fluid/fluid -->
<g id="node15" class="node"><title>typo3fluid/fluid</title>
<path fill="#eeeeee" stroke="black" d="M1157.5,-472C1157.5,-472 1044.5,-472 1044.5,-472 1038.5,-472 1032.5,-466 1032.5,-460 1032.5,-460 1032.5,-448 1032.5,-448 1032.5,-442 1038.5,-436 1044.5,-436 1044.5,-436 1157.5,-436 1157.5,-436 1163.5,-436 1169.5,-442 1169.5,-448 1169.5,-448 1169.5,-460 1169.5,-460 1169.5,-466 1163.5,-472 1157.5,-472"/>
<text text-anchor="middle" x="1101" y="-450.3" font-family="Times New Roman,serif" font-size="14.00" fill="#314b5f">typo3fluid/fluid: 1.1.2</text>
</g>
<!-- apparat/server&#45;&gt;typo3fluid/fluid -->
<g id="edge25" class="edge"><title>apparat/server&#45;&gt;typo3fluid/fluid</title>
<path fill="none" stroke="#1a2833" d="M908.339,-579.231C933.164,-574.005 959.929,-566.305 983,-555 1021.13,-536.316 1057.18,-502.561 1079.16,-479.481"/>
<polygon fill="#1a2833" stroke="#1a2833" points="1081.79,-481.796 1086.07,-472.101 1076.68,-477.015 1081.79,-481.796"/>
<text text-anchor="middle" x="1013.5" y="-547" font-family="Times New Roman,serif" font-size="10.00" fill="#767676">^1.0.7</text>
</g>
<!-- zendframework/zend&#45;diactoros -->
<g id="node16" class="node"><title>zendframework/zend&#45;diactoros</title>
<path fill="#eeeeee" stroke="black" d="M1061,-227C1061,-227 861,-227 861,-227 855,-227 849,-221 849,-215 849,-215 849,-203 849,-203 849,-197 855,-191 861,-191 861,-191 1061,-191 1061,-191 1067,-191 1073,-197 1073,-203 1073,-203 1073,-215 1073,-215 1073,-221 1067,-227 1061,-227"/>
<text text-anchor="middle" x="961" y="-205.3" font-family="Times New Roman,serif" font-size="14.00" fill="#314b5f">zendframework/zend&#45;diactoros: 1.3.8</text>
</g>
<!-- apparat/server&#45;&gt;zendframework/zend&#45;diactoros -->
<g id="edge26" class="edge"><title>apparat/server&#45;&gt;zendframework/zend&#45;diactoros</title>
<path fill="none" stroke="#1a2833" d="M826,-572.934C826,-556.541 826,-531.078 826,-509 826,-509 826,-509 826,-357.5 826,-330.163 829.223,-321.325 845,-299 864.656,-271.185 895.575,-248.078 920.55,-232.384"/>
<polygon fill="#1a2833" stroke="#1a2833" points="922.405,-235.352 929.108,-227.147 918.751,-229.382 922.405,-235.352"/>
<text text-anchor="middle" x="834" y="-397.5" font-family="Times New Roman,serif" font-size="10.00" fill="#767676">^1.3</text>
</g>
<!-- apparat/object&#45;&gt;php -->
<g id="edge14" class="edge"><title>apparat/object&#45;&gt;php</title>
<path fill="none" stroke="#1a2833" d="M667.172,-489.993C672.734,-459.212 684.032,-392.148 688,-335 694.508,-241.264 664.752,-87.0665 662,-83 641.389,-52.5455 601.774,-35.8645 572.243,-27.2387"/>
<polygon fill="#1a2833" stroke="#1a2833" points="572.835,-23.7722 562.266,-24.5142 570.991,-30.525 572.835,-23.7722"/>
<text text-anchor="middle" x="703.5" y="-260.5" font-family="Times New Roman,serif" font-size="10.00" fill="#767676">&gt;=5.6.0</text>
</g>
<!-- apparat/object&#45;&gt;dominicsayers/isemail -->
<g id="edge12" class="edge"><title>apparat/object&#45;&gt;dominicsayers/isemail</title>
<path fill="none" stroke="#1a2833" d="M746.011,-501.172C799.728,-496.038 864.079,-486.983 887,-472 902.892,-461.611 895.293,-448.008 910,-436 916.269,-430.881 923.37,-426.454 930.775,-422.638"/>
<polygon fill="#1a2833" stroke="#1a2833" points="932.745,-425.577 940.276,-418.125 929.741,-419.254 932.745,-425.577"/>
<text text-anchor="middle" x="932.5" y="-451.5" font-family="Times New Roman,serif" font-size="10.00" fill="#767676">dev&#45;master</text>
</g>
<!-- apparat/object&#45;&gt;apparat/resource -->
<g id="edge11" class="edge"><title>apparat/object&#45;&gt;apparat/resource</title>
<path fill="none" stroke="#1a2833" d="M595.414,-489.938C581.857,-485.158 568.094,-479.234 556,-472 535.572,-459.781 516.298,-440.96 502.544,-425.765"/>
<polygon fill="#1a2833" stroke="#1a2833" points="505.117,-423.391 495.878,-418.204 499.866,-428.02 505.117,-423.391"/>
<text text-anchor="middle" x="578.5" y="-451.5" font-family="Times New Roman,serif" font-size="10.00" fill="#767676">dev&#45;master</text>
</g>
<!-- apparat/object&#45;&gt;apparat/kernel -->
<g id="edge16" class="edge"><title>apparat/object&#45;&gt;apparat/kernel</title>
<path fill="none" stroke="#1a2833" stroke-dasharray="5,2" d="M581.847,-490.699C503.653,-473.848 393.016,-446.109 359,-418 352.508,-412.636 329.351,-371.664 314.052,-343.857"/>
<polygon fill="#1a2833" stroke="#1a2833" points="317.075,-342.09 309.201,-335.002 310.936,-345.454 317.075,-342.09"/>
<text text-anchor="middle" x="371.5" y="-397.5" font-family="Times New Roman,serif" font-size="10.00" fill="#767676">@dev</text>
</g>
<!-- league/commonmark -->
<g id="node11" class="node"><title>league/commonmark</title>
<path fill="#eeeeee" stroke="black" d="M667.5,-335C667.5,-335 518.5,-335 518.5,-335 512.5,-335 506.5,-329 506.5,-323 506.5,-323 506.5,-311 506.5,-311 506.5,-305 512.5,-299 518.5,-299 518.5,-299 667.5,-299 667.5,-299 673.5,-299 679.5,-305 679.5,-311 679.5,-311 679.5,-323 679.5,-323 679.5,-329 673.5,-335 667.5,-335"/>
<text text-anchor="middle" x="593" y="-313.3" font-family="Times New Roman,serif" font-size="14.00" fill="#314b5f">league/commonmark: 0.13.4</text>
</g>
<!-- apparat/object&#45;&gt;league/commonmark -->
<g id="edge13" class="edge"><title>apparat/object&#45;&gt;league/commonmark</title>
<path fill="none" stroke="#1a2833" d="M657.574,-489.894C645.17,-456.876 617.848,-384.144 603.03,-344.699"/>
<polygon fill="#1a2833" stroke="#1a2833" points="606.256,-343.334 599.463,-335.203 599.703,-345.795 606.256,-343.334"/>
<text text-anchor="middle" x="640.5" y="-397.5" font-family="Times New Roman,serif" font-size="10.00" fill="#767676">^0.13</text>
</g>
<!-- psr/http&#45;message -->
<g id="node12" class="node"><title>psr/http&#45;message</title>
<path fill="#eeeeee" stroke="black" d="M859,-119C859,-119 737,-119 737,-119 731,-119 725,-113 725,-107 725,-107 725,-95 725,-95 725,-89 731,-83 737,-83 737,-83 859,-83 859,-83 865,-83 871,-89 871,-95 871,-95 871,-107 871,-107 871,-113 865,-119 859,-119"/>
<text text-anchor="middle" x="798" y="-97.3" font-family="Times New Roman,serif" font-size="14.00" fill="#314b5f">psr/http&#45;message: 1.0.1</text>
</g>
<!-- apparat/object&#45;&gt;psr/http&#45;message -->
<g id="edge15" class="edge"><title>apparat/object&#45;&gt;psr/http&#45;message</title>
<path fill="none" stroke="#1a2833" d="M702.647,-489.86C710.012,-485.03 716.977,-479.107 722,-472 761.5,-416.108 787.113,-205.375 795.224,-129.465"/>
<polygon fill="#1a2833" stroke="#1a2833" points="798.73,-129.589 796.293,-119.278 791.768,-128.858 798.73,-129.589"/>
<text text-anchor="middle" x="780.5" y="-314.5" font-family="Times New Roman,serif" font-size="10.00" fill="#767676">~1.0</text>
</g>
<!-- apparat/resource&#45;&gt;php -->
<g id="edge19" class="edge"><title>apparat/resource&#45;&gt;php</title>
<path fill="none" stroke="#1a2833" d="M480.668,-381.946C479.504,-365.562 478,-340.105 478,-318 478,-318 478,-318 478,-100 478,-78.182 492.002,-58.0935 506.127,-43.3798"/>
<polygon fill="#1a2833" stroke="#1a2833" points="508.763,-45.6963 513.451,-36.1948 503.861,-40.6995 508.763,-45.6963"/>
<text text-anchor="middle" x="492.5" y="-206.5" font-family="Times New Roman,serif" font-size="10.00" fill="#767676">&gt;=5.6.0</text>
</g>
<!-- apparat/resource&#45;&gt;apparat/kernel -->
<g id="edge17" class="edge"><title>apparat/resource&#45;&gt;apparat/kernel</title>
<path fill="none" stroke="#1a2833" d="M422.496,-381.963C407.085,-376.846 390.698,-370.769 376,-364 361.545,-357.343 346.395,-348.578 333.459,-340.487"/>
<polygon fill="#1a2833" stroke="#1a2833" points="335.207,-337.451 324.893,-335.028 331.444,-343.354 335.207,-337.451"/>
<text text-anchor="middle" x="398.5" y="-356" font-family="Times New Roman,serif" font-size="10.00" fill="#767676">dev&#45;master</text>
</g>
<!-- apparat/resource&#45;&gt;league/commonmark -->
<g id="edge18" class="edge"><title>apparat/resource&#45;&gt;league/commonmark</title>
<path fill="none" stroke="#1a2833" d="M505.54,-381.822C521.728,-370.009 543.419,-354.18 561.149,-341.242"/>
<polygon fill="#1a2833" stroke="#1a2833" points="563.479,-343.875 569.494,-335.153 559.353,-338.221 563.479,-343.875"/>
<text text-anchor="middle" x="555.5" y="-356" font-family="Times New Roman,serif" font-size="10.00" fill="#767676">^0.13</text>
</g>
<!-- symfony/yaml -->
<g id="node13" class="node"><title>symfony/yaml</title>
<path fill="#eeeeee" stroke="black" d="M450.5,-281C450.5,-281 337.5,-281 337.5,-281 331.5,-281 325.5,-275 325.5,-269 325.5,-269 325.5,-257 325.5,-257 325.5,-251 331.5,-245 337.5,-245 337.5,-245 450.5,-245 450.5,-245 456.5,-245 462.5,-251 462.5,-257 462.5,-257 462.5,-269 462.5,-269 462.5,-275 456.5,-281 450.5,-281"/>
<text text-anchor="middle" x="394" y="-259.3" font-family="Times New Roman,serif" font-size="14.00" fill="#314b5f">symfony/yaml: v3.2.1</text>
</g>
<!-- apparat/resource&#45;&gt;symfony/yaml -->
<g id="edge20" class="edge"><title>apparat/resource&#45;&gt;symfony/yaml</title>
<path fill="none" stroke="#1a2833" d="M463.342,-381.69C458.052,-376.298 452.51,-370.147 448,-364 430.87,-340.654 415.634,-311.211 405.749,-290.334"/>
<polygon fill="#1a2833" stroke="#1a2833" points="408.856,-288.714 401.47,-281.118 402.507,-291.662 408.856,-288.714"/>
<text text-anchor="middle" x="456" y="-356" font-family="Times New Roman,serif" font-size="10.00" fill="#767676">^3.1</text>
</g>
<!-- apparat/kernel&#45;&gt;php -->
<g id="edge9" class="edge"><title>apparat/kernel&#45;&gt;php</title>
<path fill="none" stroke="#1a2833" d="M260.76,-298.999C252.483,-294.087 244.345,-288.094 238,-281 193.207,-230.924 159.817,-195.976 192,-137 224.657,-77.1551 257.363,-78.4576 321,-54 380.084,-31.2924 453.869,-23.315 497.558,-20.5139"/>
<polygon fill="#1a2833" stroke="#1a2833" points="497.946,-23.9973 507.726,-19.9213 497.539,-17.0092 497.946,-23.9973"/>
<text text-anchor="middle" x="206.5" y="-152.5" font-family="Times New Roman,serif" font-size="10.00" fill="#767676">&gt;=5.6.0</text>
</g>
<!-- level&#45;2/dice -->
<g id="node8" class="node"><title>level&#45;2/dice</title>
<path fill="#eeeeee" stroke="black" d="M332,-173C332,-173 242,-173 242,-173 236,-173 230,-167 230,-161 230,-161 230,-149 230,-149 230,-143 236,-137 242,-137 242,-137 332,-137 332,-137 338,-137 344,-143 344,-149 344,-149 344,-161 344,-161 344,-167 338,-173 332,-173"/>
<text text-anchor="middle" x="287" y="-151.3" font-family="Times New Roman,serif" font-size="14.00" fill="#314b5f">level&#45;2/dice: 2.0.3</text>
</g>
<!-- apparat/kernel&#45;&gt;level&#45;2/dice -->
<g id="edge7" class="edge"><title>apparat/kernel&#45;&gt;level&#45;2/dice</title>
<path fill="none" stroke="#1a2833" d="M281.696,-298.967C265.354,-282.404 242.567,-255.614 233,-227 227.927,-211.826 225.359,-205.058 233,-191 235.312,-186.745 238.39,-182.928 241.907,-179.522"/>
<polygon fill="#1a2833" stroke="#1a2833" points="244.183,-182.182 249.639,-173.1 239.71,-176.797 244.183,-182.182"/>
<text text-anchor="middle" x="271.5" y="-260.5" font-family="Times New Roman,serif" font-size="10.00" fill="#767676">2.*</text>
</g>
<!-- monolog/monolog -->
<g id="node9" class="node"><title>monolog/monolog</title>
<path fill="#eeeeee" stroke="black" d="M391.5,-227C391.5,-227 254.5,-227 254.5,-227 248.5,-227 242.5,-221 242.5,-215 242.5,-215 242.5,-203 242.5,-203 242.5,-197 248.5,-191 254.5,-191 254.5,-191 391.5,-191 391.5,-191 397.5,-191 403.5,-197 403.5,-203 403.5,-203 403.5,-215 403.5,-215 403.5,-221 397.5,-227 391.5,-227"/>
<text text-anchor="middle" x="323" y="-205.3" font-family="Times New Roman,serif" font-size="14.00" fill="#314b5f">monolog/monolog: 1.22.0</text>
</g>
<!-- apparat/kernel&#45;&gt;monolog/monolog -->
<g id="edge8" class="edge"><title>apparat/kernel&#45;&gt;monolog/monolog</title>
<path fill="none" stroke="#1a2833" d="M299.295,-298.744C299.15,-284.158 300.009,-262.851 305,-245 305.794,-242.162 306.83,-239.287 308.006,-236.468"/>
<polygon fill="#1a2833" stroke="#1a2833" points="311.263,-237.769 312.387,-227.234 304.939,-234.769 311.263,-237.769"/>
<text text-anchor="middle" x="310.5" y="-260.5" font-family="Times New Roman,serif" font-size="10.00" fill="#767676">1.x</text>
</g>
<!-- vlucas/phpdotenv -->
<g id="node10" class="node"><title>vlucas/phpdotenv</title>
<path fill="#eeeeee" stroke="black" d="M160.5,-173C160.5,-173 27.5,-173 27.5,-173 21.5,-173 15.5,-167 15.5,-161 15.5,-161 15.5,-149 15.5,-149 15.5,-143 21.5,-137 27.5,-137 27.5,-137 160.5,-137 160.5,-137 166.5,-137 172.5,-143 172.5,-149 172.5,-149 172.5,-161 172.5,-161 172.5,-167 166.5,-173 160.5,-173"/>
<text text-anchor="middle" x="94" y="-151.3" font-family="Times New Roman,serif" font-size="14.00" fill="#314b5f">vlucas/phpdotenv: v2.4.0</text>
</g>
<!-- apparat/kernel&#45;&gt;vlucas/phpdotenv -->
<g id="edge10" class="edge"><title>apparat/kernel&#45;&gt;vlucas/phpdotenv</title>
<path fill="none" stroke="#1a2833" d="M218.132,-311.003C193.737,-306.052 168.373,-297.055 149,-281 119.054,-256.182 104.902,-211.844 98.5998,-183.192"/>
<polygon fill="#1a2833" stroke="#1a2833" points="101.962,-182.162 96.552,-173.053 95.101,-183.548 101.962,-182.162"/>
<text text-anchor="middle" x="155.5" y="-260.5" font-family="Times New Roman,serif" font-size="10.00" fill="#767676">2.*</text>
</g>
<!-- level&#45;2/dice&#45;&gt;php -->
<g id="edge35" class="edge"><title>level&#45;2/dice&#45;&gt;php</title>
<path fill="none" stroke="#1a2833" d="M289.046,-136.966C291.535,-121.741 296.875,-99.3737 308,-83 319.742,-65.7181 325.952,-62.5858 345,-54 394.858,-31.5268 458.281,-23.4825 497.764,-20.6036"/>
<polygon fill="#1a2833" stroke="#1a2833" points="498.241,-24.08 507.992,-19.9349 497.785,-17.0949 498.241,-24.08"/>
<text text-anchor="middle" x="322.5" y="-98.5" font-family="Times New Roman,serif" font-size="10.00" fill="#767676">&gt;=5.6.0</text>
</g>
<!-- monolog/monolog&#45;&gt;php -->
<g id="edge36" class="edge"><title>monolog/monolog&#45;&gt;php</title>
<path fill="none" stroke="#1a2833" d="M334.338,-190.773C337.881,-185.179 341.719,-178.895 345,-173 375.179,-118.786 364.719,-85.7962 418,-54 442.692,-39.2645 474.06,-30.3187 498.1,-25.164"/>
<polygon fill="#1a2833" stroke="#1a2833" points="498.804,-28.5924 507.913,-23.181 497.418,-21.7311 498.804,-28.5924"/>
<text text-anchor="middle" x="399.5" y="-98.5" font-family="Times New Roman,serif" font-size="10.00" fill="#767676">&gt;=5.3.0</text>
</g>
<!-- psr/log -->
<g id="node17" class="node"><title>psr/log</title>
<path fill="#eeeeee" stroke="black" d="M641,-119C641,-119 575,-119 575,-119 569,-119 563,-113 563,-107 563,-107 563,-95 563,-95 563,-89 569,-83 575,-83 575,-83 641,-83 641,-83 647,-83 653,-89 653,-95 653,-95 653,-107 653,-107 653,-113 647,-119 641,-119"/>
<text text-anchor="middle" x="608" y="-97.3" font-family="Times New Roman,serif" font-size="14.00" fill="#314b5f">psr/log: 1.0.2</text>
</g>
<!-- monolog/monolog&#45;&gt;psr/log -->
<g id="edge37" class="edge"><title>monolog/monolog&#45;&gt;psr/log</title>
<path fill="none" stroke="#1a2833" d="M349.765,-190.668C356.778,-185.455 364.039,-179.404 370,-173 382.937,-159.103 377.137,-147.434 393,-137 418.601,-120.16 497.946,-110.615 552.733,-105.877"/>
<polygon fill="#1a2833" stroke="#1a2833" points="553.324,-109.34 562.999,-105.021 552.742,-102.365 553.324,-109.34"/>
<text text-anchor="middle" x="401.5" y="-152.5" font-family="Times New Roman,serif" font-size="10.00" fill="#767676">~1.0</text>
</g>
<!-- vlucas/phpdotenv&#45;&gt;php -->
<g id="edge42" class="edge"><title>vlucas/phpdotenv&#45;&gt;php</title>
<path fill="none" stroke="#1a2833" d="M103.168,-136.712C116.783,-113.078 144.793,-71.6122 182,-54 237.09,-27.9222 418.027,-21.2468 497.265,-19.5602"/>
<polygon fill="#1a2833" stroke="#1a2833" points="497.818,-23.0501 507.748,-19.3538 497.681,-16.0514 497.818,-23.0501"/>
<text text-anchor="middle" x="157.5" y="-98.5" font-family="Times New Roman,serif" font-size="10.00" fill="#767676">&gt;=5.3.9</text>
</g>
<!-- league/commonmark&#45;&gt;php -->
<g id="edge34" class="edge"><title>league/commonmark&#45;&gt;php</title>
<path fill="none" stroke="#1a2833" d="M583.5,-298.867C574.283,-281.37 560.731,-253.139 554,-227 537.681,-163.632 534.928,-86.2478 534.724,-46.0944"/>
<polygon fill="#1a2833" stroke="#1a2833" points="538.224,-46.0283 534.724,-36.0285 531.224,-46.0286 538.224,-46.0283"/>
<text text-anchor="middle" x="558.5" y="-152.5" font-family="Times New Roman,serif" font-size="10.00" fill="#767676">&gt;=5.4.8</text>
</g>
<!-- ext&#45;mbstring -->
<g id="node18" class="node"><title>ext&#45;mbstring</title>
<path fill="#eeeeee" stroke="black" d="M637,-227C637,-227 575,-227 575,-227 569,-227 563,-221 563,-215 563,-215 563,-203 563,-203 563,-197 569,-191 575,-191 575,-191 637,-191 637,-191 643,-191 649,-197 649,-203 649,-203 649,-215 649,-215 649,-221 643,-227 637,-227"/>
<text text-anchor="middle" x="606" y="-205.3" font-family="Times New Roman,serif" font-size="14.00" fill="#314b5f">ext&#45;mbstring</text>
</g>
<!-- league/commonmark&#45;&gt;ext&#45;mbstring -->
<g id="edge33" class="edge"><title>league/commonmark&#45;&gt;ext&#45;mbstring</title>
<path fill="none" stroke="#1a2833" d="M595.089,-298.969C597.123,-282.378 600.25,-256.883 602.636,-237.431"/>
<polygon fill="#1a2833" stroke="#1a2833" points="606.13,-237.692 603.873,-227.341 599.182,-236.84 606.13,-237.692"/>
<text text-anchor="middle" x="605" y="-260.5" font-family="Times New Roman,serif" font-size="10.00" fill="#767676">*</text>
</g>
<!-- psr/http&#45;message&#45;&gt;php -->
<g id="edge38" class="edge"><title>psr/http&#45;message&#45;&gt;php</title>
<path fill="none" stroke="#1a2833" d="M764.36,-82.8729C744.563,-73.3305 718.813,-61.8305 695,-54 653.808,-40.4549 604.916,-30.6276 572.115,-24.8952"/>
<polygon fill="#1a2833" stroke="#1a2833" points="572.507,-21.4115 562.06,-23.1783 571.328,-28.3117 572.507,-21.4115"/>
<text text-anchor="middle" x="739.5" y="-57" font-family="Times New Roman,serif" font-size="10.00" fill="#767676">&gt;=5.3.0</text>
</g>
<!-- symfony/yaml&#45;&gt;php -->
<g id="edge40" class="edge"><title>symfony/yaml&#45;&gt;php</title>
<path fill="none" stroke="#1a2833" d="M403.765,-244.906C406.69,-239.319 409.722,-233.005 412,-227 440.479,-151.933 410.791,-114.123 464,-54 473.127,-43.687 485.988,-36.0849 498.261,-30.6516"/>
<polygon fill="#1a2833" stroke="#1a2833" points="499.941,-33.7475 507.895,-26.7489 497.313,-27.2596 499.941,-33.7475"/>
<text text-anchor="middle" x="443.5" y="-152.5" font-family="Times New Roman,serif" font-size="10.00" fill="#767676">&gt;=5.5.9</text>
</g>
<!-- aura/router&#45;&gt;php -->
<g id="edge29" class="edge"><title>aura/router&#45;&gt;php</title>
<path fill="none" stroke="#1a2833" d="M965.679,-302.006C1025.03,-283.888 1107.27,-247.735 1082,-191 1052.81,-125.454 1025.93,-115.589 962,-83 893.907,-48.2864 663.346,-28.2664 572.364,-21.558"/>
<polygon fill="#1a2833" stroke="#1a2833" points="572.459,-18.0559 562.232,-20.8237 571.953,-25.0375 572.459,-18.0559"/>
<text text-anchor="middle" x="1088.5" y="-152.5" font-family="Times New Roman,serif" font-size="10.00" fill="#767676">&gt;=5.5.0</text>
</g>
<!-- aura/router&#45;&gt;psr/http&#45;message -->
<g id="edge30" class="edge"><title>aura/router&#45;&gt;psr/http&#45;message</title>
<path fill="none" stroke="#1a2833" d="M886.97,-298.887C866.862,-282.657 838.534,-256.427 823,-227 806.655,-196.037 800.964,-155.606 799.002,-129.233"/>
<polygon fill="#1a2833" stroke="#1a2833" points="802.492,-128.961 798.385,-119.195 795.505,-129.391 802.492,-128.961"/>
<text text-anchor="middle" x="831.5" y="-206.5" font-family="Times New Roman,serif" font-size="10.00" fill="#767676">~1.0</text>
</g>
<!-- aura/router&#45;&gt;zendframework/zend&#45;diactoros -->
<g id="edge32" class="edge"><title>aura/router&#45;&gt;zendframework/zend&#45;diactoros</title>
<path fill="none" stroke="#1a2833" stroke-dasharray="5,2" d="M918.194,-298.969C926.324,-282.071 938.899,-255.935 948.319,-236.356"/>
<polygon fill="#1a2833" stroke="#1a2833" points="951.475,-237.869 952.657,-227.341 945.167,-234.834 951.475,-237.869"/>
<text text-anchor="middle" x="952.5" y="-260.5" font-family="Times New Roman,serif" font-size="10.00" fill="#767676">~1.0</text>
</g>
<!-- aura/router&#45;&gt;psr/log -->
<g id="edge31" class="edge"><title>aura/router&#45;&gt;psr/log</title>
<path fill="none" stroke="#1a2833" d="M865.924,-298.887C854.261,-293.714 841.892,-287.629 831,-281 753.472,-233.817 672.951,-162.74 633.248,-125.956"/>
<polygon fill="#1a2833" stroke="#1a2833" points="635.566,-123.332 625.864,-119.074 630.793,-128.452 635.566,-123.332"/>
<text text-anchor="middle" x="761.5" y="-206.5" font-family="Times New Roman,serif" font-size="10.00" fill="#767676">~1.0</text>
</g>
<!-- typo3fluid/fluid&#45;&gt;php -->
<g id="edge41" class="edge"><title>typo3fluid/fluid&#45;&gt;php</title>
<path fill="none" stroke="#1a2833" d="M1112.61,-435.92C1123.78,-417.788 1139,-387.886 1139,-359.5 1139,-359.5 1139,-359.5 1139,-100 1139,-42.5651 704.431,-24.2873 572.517,-20.0621"/>
<polygon fill="#1a2833" stroke="#1a2833" points="572.23,-16.5516 562.126,-19.7385 572.012,-23.5482 572.23,-16.5516"/>
<text text-anchor="middle" x="1153.5" y="-260.5" font-family="Times New Roman,serif" font-size="10.00" fill="#767676">&gt;=5.5.0</text>
</g>
<!-- zendframework/zend&#45;diactoros&#45;&gt;php -->
<g id="edge43" class="edge"><title>zendframework/zend&#45;diactoros&#45;&gt;php</title>
<path fill="none" stroke="#1a2833" d="M955.314,-190.755C945.119,-162.841 920.886,-108.333 880,-83 828.812,-51.2833 650.928,-30.3847 572.563,-22.511"/>
<polygon fill="#1a2833" stroke="#1a2833" points="572.485,-18.9864 562.189,-21.4867 571.797,-25.9525 572.485,-18.9864"/>
<text text-anchor="middle" x="938" y="-98.5" font-family="Times New Roman,serif" font-size="10.00" fill="#767676">^5.4 || ^7.0</text>
</g>
<!-- zendframework/zend&#45;diactoros&#45;&gt;psr/http&#45;message -->
<g id="edge44" class="edge"><title>zendframework/zend&#45;diactoros&#45;&gt;psr/http&#45;message</title>
<path fill="none" stroke="#1a2833" d="M934.811,-190.969C907.208,-173.019 863.578,-144.646 833.03,-124.78"/>
<polygon fill="#1a2833" stroke="#1a2833" points="834.685,-121.682 824.394,-119.164 830.869,-127.55 834.685,-121.682"/>
<text text-anchor="middle" x="912.5" y="-152.5" font-family="Times New Roman,serif" font-size="10.00" fill="#767676">~1.0</text>
</g>
<!-- psr/log&#45;&gt;php -->
<g id="edge39" class="edge"><title>psr/log&#45;&gt;php</title>
<path fill="none" stroke="#1a2833" d="M592.519,-82.822C582.259,-71.4386 568.64,-56.3263 557.229,-43.6649"/>
<polygon fill="#1a2833" stroke="#1a2833" points="559.754,-41.2385 550.459,-36.1533 554.554,-45.9248 559.754,-41.2385"/>
<text text-anchor="middle" x="590.5" y="-57" font-family="Times New Roman,serif" font-size="10.00" fill="#767676">&gt;=5.3.0</text>
</g>
</g>
</svg>
